# xmcd CD database file
#
# Track frame offsets:
#	150
#	30402
#	56583
#	81340
#	109434
#	134472
#	160519
#	179433
#	198735
#	225361
#	242895
#	267153
#	282774
#
# Disc length: 4051 seconds
#
# Revision: 2
# Processed by: cddbd v1.5.2PL0 Copyright (c) Steve Scherf et al.
# Submitted via: CDex 1.51
#
DISCID=b20fd10d
DTITLE=Ken Follett - Die Löwen
DYEAR=2000
DGENRE=Speech
TTITLE0=401_42
TTITLE1=402_43
TTITLE2=403_44
TTITLE3=404_45
TTITLE4=405_46
TTITLE5=406_47
TTITLE6=407_48
TTITLE7=408_49
TTITLE8=409_50
TTITLE9=410_51
TTITLE10=411_52
TTITLE11=412_53
TTITLE12=413_54
EXTD=gelesen von Ulrich Pleitgen YEAR: 2000
EXTT0=
EXTT1=
EXTT2=
EXTT3=
EXTT4=
EXTT5=
EXTT6=
EXTT7=
EXTT8=
EXTT9=
EXTT10=
EXTT11=
EXTT12=
PLAYORDER=
